<?xml version="1.0" encoding="utf-8"?>
<!-- Generator: Adobe Illustrator 19.2.1, SVG Export Plug-In . SVG Version: 6.00 Build 0)  -->
<svg version="1.1" id="Calque_1" xmlns="http://www.w3.org/2000/svg" xmlns:xlink="http://www.w3.org/1999/xlink" x="0px" y="0px"
	 viewBox="0 0 294.9 88.1" style="enable-background:new 0 0 294.9 88.1;" xml:space="preserve">
<style type="text/css">
	.st0{fill:#3A1A0A;}
	.st1{fill:#ED7211;}
</style>
<path class="st0" d="M256.3,20.5c0.4,0,0.7-0.3,0.7-0.7v-5.9c0-0.4-0.3-0.7-0.7-0.7c-0.4,0-0.7,0.3-0.7,0.7v5.9
	C255.5,20.2,255.9,20.5,256.3,20.5z"/>
<path class="st0" d="M262.4,20.5c0.4,0,0.7-0.3,0.7-0.7v-6.5c0-0.4-0.3-0.7-0.7-0.7c-0.4,0-0.7,0.3-0.7,0.7v6.5
	C261.6,20.2,262,20.5,262.4,20.5z"/>
<path class="st0" d="M268.3,20.5c0.4,0,0.7-0.3,0.7-0.7v-7.8c0-0.4-0.3-0.7-0.7-0.7c-0.4,0-0.7,0.3-0.7,0.7v7.8
	C267.6,20.2,267.9,20.5,268.3,20.5z"/>
<path class="st0" d="M255.5,33.8c0,0.4,0.3,0.7,0.7,0.7c0.4,0,0.7-0.3,0.7-0.7v-7.1c0-0.4-0.3-0.7-0.7-0.7c-0.4,0-0.7,0.3-0.7,0.7
	V33.8z"/>
<path class="st0" d="M261.6,33.3c0,0.4,0.3,0.7,0.7,0.7c0.4,0,0.7-0.3,0.7-0.7v-6.5c0-0.4-0.3-0.7-0.7-0.7c-0.4,0-0.7,0.3-0.7,0.7
	V33.3z"/>
<path class="st0" d="M267.6,32.9c0,0.4,0.3,0.7,0.7,0.7c0.4,0,0.7-0.3,0.7-0.7v-7c0-0.4-0.3-0.7-0.7-0.7c-0.4,0-0.7,0.3-0.7,0.7
	V32.9z"/>
<path class="st0" d="M255.5,45.6c0,0.4,0.3,0.7,0.7,0.7c0.4,0,0.7-0.3,0.7-0.7v-6.8c0-0.4-0.3-0.7-0.7-0.7c-0.4,0-0.7,0.3-0.7,0.7
	V45.6z"/>
<path class="st0" d="M261.6,44.7c0,0.4,0.3,0.7,0.7,0.7c0.4,0,0.7-0.3,0.7-0.7v-6.5c0-0.4-0.3-0.7-0.7-0.7c-0.4,0-0.7,0.3-0.7,0.7
	V44.7z"/>
<path class="st0" d="M267.6,45.3c0,0.4,0.3,0.7,0.7,0.7c0.4,0,0.7-0.3,0.7-0.7v-7c0-0.4-0.3-0.7-0.7-0.7c-0.4,0-0.7,0.3-0.7,0.7
	V45.3z"/>
<g>
	<path class="st1" d="M120.3,52.4c-1.3,0-2.4,0.6-3.1,1.8c-0.8,1.2-1.2,2.7-1.2,4.7c0,1.9,0.4,3.4,1.2,4.6c0.8,1.2,1.8,1.8,3.1,1.8
		c1.3,0,2.4-0.6,3.1-1.8c0.8-1.2,1.1-2.8,1.1-4.7c0-2-0.4-3.5-1.2-4.6C122.6,53,121.6,52.4,120.3,52.4z"/>
	<path class="st1" d="M201.5,55.4c0-0.8-0.3-1.4-0.8-1.9c-0.5-0.4-1.2-0.7-2.1-0.7h-4.2v5.4h4c1.1,0,1.8-0.3,2.4-0.8
		C201.3,56.9,201.5,56.2,201.5,55.4z"/>
	<path class="st1" d="M139.5,59.6c-0.4-0.3-1.1-0.4-2-0.4h-3.8v5.6h4.1c1,0,1.8-0.2,2.3-0.7c0.5-0.5,0.8-1.1,0.8-1.9
		c0-0.5-0.1-1.1-0.4-1.5C140.3,60.2,139.9,59.8,139.5,59.6z"/>
	<path class="st1" d="M139.8,56.9c0.5-0.5,0.7-1.1,0.7-1.9c0-0.7-0.3-1.3-0.8-1.7c-0.5-0.4-1.2-0.7-2.2-0.7h-3.8v5h3.4
		C138.4,57.7,139.3,57.5,139.8,56.9z"/>
	<path class="st1" d="M9.9,52.8H6.8v12.1h3.1c1.6,0,2.9-0.6,3.8-1.7c0.9-1.1,1.3-2.6,1.3-4.5c0-1.5-0.4-2.9-1.2-4.1
		C12.9,53.4,11.6,52.8,9.9,52.8z"/>
	<path class="st1" d="M0,45.4v29.1h223.6V45.4H0z M15.1,64.3c-1.2,1.5-2.7,2.2-4.5,2.2H4.9V51.2H10c2.2,0,3.9,0.7,5.1,2.2
		c1.2,1.5,1.8,3.3,1.8,5.4C16.9,60.9,16.3,62.8,15.1,64.3z M32,66.5h-9.9V51.2h9.7v1.7H24v4.9h6.2v1.6H24v5.5h8V66.5z M54.1,66.5H45
		V51.2h2v13.6h7.1V66.5z M59.3,57.1h-1.1l-0.3-5.9h1.8L59.3,57.1z M67,66.5H65V51.2H67V66.5z M87.9,66.5H86V53.1l-5,13.4h-1.3
		l-5.1-13.4v13.4h-1.6V51.2H76l4.6,12.3l4.5-12.3h2.8V66.5z M108.9,66.5H107V53.1l-5,13.4h-1.3l-5.1-13.4v13.4H94V51.2h2.9l4.6,12.3
		l4.5-12.3h2.8V66.5z M124.9,64.4c-1.1,1.6-2.7,2.4-4.7,2.4c-2,0-3.5-0.8-4.6-2.3c-1.1-1.5-1.7-3.4-1.7-5.6c0-2.3,0.6-4.2,1.7-5.7
		c1.2-1.5,2.7-2.3,4.6-2.3c1.9,0,3.4,0.7,4.6,2.2c1.1,1.5,1.7,3.4,1.7,5.6C126.6,60.9,126,62.8,124.9,64.4z M141.6,65.3
		c-0.8,0.8-2.1,1.2-3.8,1.2h-6.1V51.2h6.1c1.5,0,2.7,0.4,3.4,1.1c0.7,0.8,1.1,1.6,1.1,2.6c0,1.7-0.9,2.9-2.7,3.5
		c1.1,0.3,1.9,0.8,2.4,1.5c0.5,0.7,0.8,1.5,0.8,2.4C142.8,63.5,142.4,64.5,141.6,65.3z M149.9,66.5H148V51.2h1.9V66.5z M165.1,66.5
		h-9.1V51.2h2v13.6h7.1V66.5z M171.6,66.5h-1.9V51.2h1.9V66.5z M187.6,66.5h-9.9V51.2h9.7v1.7h-7.8v4.9h6.2v1.6h-6.2v5.5h8V66.5z
		 M201.6,66.5l-2.8-6.6h-4.4v6.6h-1.8V51.2h6c1.6,0,2.9,0.4,3.6,1.3c0.8,0.9,1.2,1.9,1.2,2.9c0,0.8-0.2,1.6-0.7,2.4
		c-0.4,0.8-1.2,1.3-2.2,1.6l3,7.1H201.6z M219.8,56.1c-0.3,1-0.7,2-1,2.9c-5.3,0.3-9,0.4-9.8,0.4c0.7-1.1,1.5-4.6,1.5-4.6
		c3.4,0,6.7-0.1,9.9-0.1C220.1,55.2,220,55.7,219.8,56.1z"/>
</g>
<path class="st0" d="M291.9,3.2c-0.1-0.2-0.3-0.3-0.5-0.3l-18.6-2c-0.1,0-0.2,0-0.3,0l0,0l-23.2,6.8c-0.2,0.1-0.4,0.2-0.5,0.4
	c-0.1,0.2-0.1,0.4,0,0.6c0,0.1,4.7,11.4,0.9,52.1l1.5,0.1c3.4-35.8,0.3-48.9-0.7-52.1l21.5-6.3l-0.4,81.3l-26.3-13.6l-9.9-35.8h0
	l0,0l-11.7-3.4l-0.1,0.8c-0.6,4.1-3.1,14.4-6.3,23.9c-3.3,10-8.9,17.4-9,17.5l-0.9,1.2h1.5h15.9h0.6l0.1-0.6v0l9.2-36.4l9.3,33.4
	l0.4,0.5l27.6,14.3h0c0.1,0,0.2,0.1,0.2,0.1l18.5,2.2c0,0,0.1,0,0.1,0c0.2,0,0.4-0.1,0.6-0.3c0.2-0.2,0.2-0.5,0.1-0.7
	c-1.4-3.7-8.8-25.7-8.8-41c0-14.9,9.2-42,9.3-42.2C292,3.6,292,3.4,291.9,3.2z"/>
<path class="st1" d="M289.6,20.2c0.7,0.7,26.9,29.8-58.1,34.1l-0.9,3.8c25.5-2.4,64.4-8.9,64.4-25.6
	C294.9,22.4,289.6,20.2,289.6,20.2z"/>
<polygon class="st0" points="21.6,32.2 21.6,38.1 2.8,38.1 2.8,8.5 9.7,8.5 9.7,32.2 "/>
<g>
	<path class="st1" d="M38,27.6c-2.4,0.3-6.9,0.8-6.9,4c0,1.7,1,2.9,2.8,2.9c1.3,0,2.5-0.7,3.2-1.8c0.9-1.4,0.9-2.7,0.9-4.2V27.6z"/>
	<path class="st1" d="M22.8,0v51.2h24.3V0H22.8z M38.6,38.1c-0.3-1.1-0.3-2.3-0.3-3.4c-1.8,2.6-3.7,3.8-7,3.8
		c-3.9,0-6.9-2.1-6.9-6.2c0-3.2,2-5.4,4.9-6.5c2.5-0.9,6-1.1,8.7-1.4v-0.5c0-0.9,0.1-2.1-0.6-2.9c-0.6-0.7-1.6-1-2.6-1
		c-2,0-3.8,1-3.8,3.2l-6-0.6c0.6-5.3,5.8-6.9,10.4-6.9c2.2,0,5.2,0.5,6.9,2c2.2,1.8,2,4.2,2,6.9v10.2c0,1.1,0.1,2.2,0.4,3.3H38.6z"
		/>
</g>
<path class="st0" d="M70.1,16.2v3.4h0.1c1.1-2.6,3.2-3.8,6.1-3.8c2.9,0,4.7,1.2,6,3.8c1.1-2.6,3.7-3.8,6.4-3.8
	c1.9,0,4.1,0.7,5.3,2.2c1.5,1.7,1.2,4.2,1.2,6.4v13.7h-6.3V26.5c0-0.9,0.1-3-0.1-3.8c-0.3-1.4-1.4-1.8-2.7-1.8
	c-1.1,0-2.3,0.6-2.8,1.7c-0.5,1-0.4,2.8-0.4,3.9v11.6h-6.3V26.5c0-2.3,0.4-5.6-2.8-5.6c-3.3,0-3.2,3.3-3.2,5.6v11.6h-6.3V16.2H70.1z
	"/>
<g>
	<path class="st1" d="M113.5,27.6c-2.4,0.3-6.9,0.8-6.9,4c0,1.7,1,2.9,2.8,2.9c1.3,0,2.5-0.7,3.2-1.8c0.9-1.4,0.9-2.7,0.9-4.2V27.6z
		"/>
	<path class="st1" d="M97.6,11.8v39.4h24.9V11.8H97.6z M114.1,38.1c-0.3-1.1-0.3-2.3-0.3-3.4c-1.8,2.6-3.7,3.8-7,3.8
		c-3.9,0-6.9-2.1-6.9-6.2c0-3.2,2-5.4,4.9-6.5c2.5-0.9,6-1.1,8.7-1.4v-0.5c0-0.9,0.1-2.1-0.6-2.9c-0.6-0.7-1.6-1-2.6-1
		c-2,0-3.8,1-3.8,3.2l-6-0.6c0.6-5.3,5.8-6.9,10.4-6.9c2.2,0,5.2,0.5,6.9,2c2.2,1.8,2,4.2,2,6.9v10.2c0,1.1,0.1,2.2,0.4,3.3H114.1z"
		/>
</g>
<path class="st0" d="M132,14.2h-6.3V8.1h6.3V14.2z M132,38.1h-6.3V16.2h6.3V38.1z"/>
<path class="st0" d="M150.3,22.7c-0.6-2.1-2.2-2.9-4.3-2.9c-1.3,0-3.3,0.3-3.3,1.9c0,4.1,13.2-0.6,13.2,9.3c0,2.3-1.1,4.3-2.9,5.6
	c-2,1.4-4.4,1.8-6.8,1.8c-4.6,0-8.8-1.6-10-6.5l5.5-0.8c0.4,2.2,2.8,2.9,4.8,2.9c1.2,0,3.8-0.4,3.8-2.1c0-1.5-1.3-1.7-2.5-1.9
	c-1.5-0.2-5.1-0.8-6.5-1.3c-2.6-0.9-4.3-3.1-4.3-5.9c0-5.4,4.7-7.3,9.4-7.3c4.3,0,7.1,1.6,8.6,5.7L150.3,22.7z"/>
<g>
	<path class="st1" d="M170.2,19.9c-3.4,0-3.6,4-3.6,6.5c0,2.5,0,7.9,3.6,7.9c3.6,0,3.8-4.3,3.8-6.9c0-1.7-0.1-3.8-0.7-5.4
		C172.7,20.5,171.7,19.9,170.2,19.9z"/>
	<path class="st1" d="M157.7,7v44.2h25.6V7H157.7z M170.2,38.5c-6.7,0-10.4-5.1-10.4-11.4c0-6.4,3.7-11.3,10.4-11.3
		c6.9,0,10.6,5.1,10.6,11.6C180.8,33.6,176.7,38.5,170.2,38.5z"/>
</g>
<path class="st0" d="M185.4,16.2h6v3.7h0.1c1.3-2.8,3.1-4.1,6.3-4.1c2.1,0,4.1,0.6,5.4,2.4c1.2,1.6,1.2,4.4,1.2,6.4v13.5H198V26.3
	c0-2.2,0.3-5.5-2.9-5.5c-1.1,0-2.2,0.6-2.7,1.6c-0.6,1.3-0.7,2.5-0.7,3.9v11.8h-6.3V16.2z"/>
</svg>
